# xmcd
#
# Track frame offsets:
# 150
# 17559
# 33131
# 46948
# 62421
# 80747
# 96383
# 110094
# 128896
# 142111
# 158238
# 173608
# 188451
#
# Disc length: 2976 seconds
#
#
# Revision: 0
# Processed by: cddbd v1.5.2PL0 Copyright (c) Steve Scherf et al.
# Submitted via: FreeRIP 2.951 
#
DISCID=a50b9e0d
DTITLE=West Plains - Mush On
DYEAR=1900
DGENRE=Country
TTITLE0=North To Alasska
TTITLE1=Whisky in My Jar
TTITLE2=Cathtachhi
TTITLE3=Hilly Billy Highway
TTITLE4=L Harmonika
TTITLE5=La Loup
TTITLE6=Dualling Banjo s
TTITLE7=Lay Down Sally
TTITLE8=Lay Down Sally
TTITLE9=Driving My Lous away
TTITLE10=Achy Breaky Heart
TTITLE11=Country Roads
TTITLE12=Kawliga
EXTD=
EXTT0=
EXTT1=
EXTT2=
EXTT3=
EXTT4=
EXTT5=
EXTT6=
EXTT7=
EXTT8=
EXTT9=
EXTT10=
EXTT11=
EXTT12=
PLAYORDER=
